<?xml version="1.0" ?><svg height="24px" version="1.1" viewBox="0 0 48 48" width="24px" xmlns="http://www.w3.org/2000/svg" xmlns:sketch="http://www.bohemiancoding.com/sketch/ns" xmlns:xlink="http://www.w3.org/1999/xlink"><title/><defs/><g fill="none" fill-rule="evenodd" id="shadow" stroke="none" stroke-width="1"><g id="google+"><path d="M24,48 C37.2548347,48 48,37.2548347 48,24 C48,10.7451653 37.2548347,0 24,0 C10.7451653,0 0,10.7451653 0,24 C0,37.2548347 10.7451653,48 24,48 Z" fill="#CA4638" id="Google+"/><path d="M0.402057344,28.3979427 C1.94451219,36.726767 7.78769194,43.5464407 15.5417032,46.4670706 L36.9902749,25.0184989 L31.8993042,24.5315872 L31.4860046,19.382457 L23.2029099,26.7855415 L21.4882965,24.5315872 L24.3685989,19.7933365 L24.809375,15.7863968 L28.0330872,11.9759193 L23.2029099,12.5104126 L21.1026718,13.1701233 L18.3019897,12.5104126 L14.7825937,14.0174063 L0.402057344,28.3979427 Z" fill="#000000" fill-opacity="0.400000006" id="google_plus"/><path d="M22.3698281,21.8942092 C23.1534982,21.1080371 23.2220568,20.0171044 23.2220568,19.402579 C23.2220568,16.9472297 21.7553027,13.1257124 18.9233815,13.1257124 C18.0363732,13.1257124 17.0813066,13.5695919 16.5348394,14.252676 C15.9550938,14.9690384 15.7839474,15.889075 15.7839474,16.7763336 C15.7839474,19.0615374 17.1145851,22.8492758 20.0485936,22.8492758 C20.9015728,22.8490256 21.8228605,22.4394254 22.3698281,21.8942092 L22.3698281,21.8942092 Z M21.3794814,28.3755005 C21.106498,28.3407208 20.9358521,28.3407208 20.595311,28.3407208 C20.2880483,28.3407208 18.4454729,28.4092794 17.012748,28.8874382 C16.2623565,29.1604216 14.0789897,29.9783709 14.0789897,32.4009421 C14.0789897,34.8230129 16.4327521,36.5622499 20.0833733,36.5622499 C23.3586736,36.5622499 25.0981608,34.9936588 25.0981608,32.8788507 C25.0981608,31.1383627 23.9726985,30.2180759 21.3794814,28.3755005 L21.3794814,28.3755005 Z M31.3846154,24.9230769 L27.6923077,24.9230769 L27.6923077,23.0769231 L31.3846154,23.0769231 L31.3846154,19.3846154 L33.2307692,19.3846154 L33.2307692,23.0769231 L36.9230769,23.0769231 L36.9230769,24.9230769 L33.2307692,24.9230769 L33.2307692,28.6153846 L31.3846154,28.6153846 L31.3846154,24.9230769 Z M23.8020526,13.2277997 C24.5862231,13.8763542 26.2241234,15.2405205 26.2241234,17.8339879 C26.2241234,20.3586464 24.7911483,21.5526672 23.3586736,22.6778792 C22.9152945,23.1215085 22.4028564,23.5994171 22.4028564,24.3500589 C22.4028564,25.1007007 22.9152945,25.5103009 23.2896145,25.8168129 L24.5184151,26.771379 C26.0199489,28.0334581 27.383865,29.1942005 27.383865,31.5487135 C27.383865,34.7547045 24.2792106,37.9962259 18.4111936,37.9962259 C13.465215,37.9962259 11.0769231,35.6424635 11.0769231,33.1173046 C11.0769231,31.8890044 11.6911983,30.1495172 13.7046697,28.954996 C15.8192276,27.6583874 18.6856783,27.4892428 20.2199901,27.3859044 C19.7423317,26.771379 19.1966151,26.1225743 19.1966151,25.0661711 C19.1966151,24.4861753 19.367261,24.1443831 19.5379069,23.7352833 C19.1618354,23.7690622 18.7875154,23.8040921 18.4457232,23.8040921 C14.8301319,23.8040921 12.7831318,21.1077869 12.7831318,18.4475124 C12.7831318,16.8789213 13.4992441,15.1379328 14.9662483,13.8758538 C16.9111612,12.2729834 19.2306442,12 21.0727192,12 L28.1002274,12 L25.9168607,13.2272993 L23.8020526,13.2272993 L23.8020526,13.2277997 Z" fill="#FFFFFF" id="g+"/></g></g></svg>